<svg width="85" height="113" viewBox="0 0 85 113" fill="none" xmlns="http://www.w3.org/2000/svg">
<g clip-path="url(#clip0)">
<path d="M36.39 0.720001H22.33L78.68 56.53L36.39 0.720001Z" fill="#005C83"/>
<path d="M0 9.75V21.36L78.68 56.53L0 9.75Z" fill="#005C83"/>
<path d="M0.859985 35.14V45.03L78.68 56.53L0.859985 35.14Z" fill="#005C83"/>
<path d="M0 67.26V76.32L78.68 57.34L0 67.26Z" fill="#005C83"/>
<path d="M0 91.99V103.78L78.68 56.53L0 91.99Z" fill="#005C83"/>
<path d="M22.06 112.66L37.21 112.71L78.68 56.53L22.06 112.66Z" fill="#005C83"/>
<path d="M13.5 0.209991V4.22999H4.88V54.22H0V0.209991H13.5Z" fill="#C4222C"/>
<path d="M13.5 58.69V62.71H4.88V112.7H0V58.69H13.5Z" fill="#C4222C"/>
<path d="M29.53 65.17V106.15C29.53 109.63 27.67 112.67 22.35 112.67C16.92 112.67 15.13 109.63 15.13 106.15V65.17C15.13 61.69 16.92 58.65 22.35 58.65C27.67 58.65 29.53 61.69 29.53 65.17ZM19.89 64.58V106.74C19.89 108.53 20.93 109.12 22.35 109.12C23.84 109.12 24.77 108.61 24.77 106.74V64.58C24.77 62.71 23.84 62.2 22.35 62.2C20.93 62.2 19.89 62.75 19.89 64.58Z" fill="#C4222C"/>
<path d="M22.34 0.209991C16.91 0.209991 15.12 3.24999 15.12 6.71999V47.71C15.12 51.18 16.91 54.22 22.34 54.22C27.66 54.22 29.52 51.18 29.52 47.71V6.71999C29.53 3.24999 27.67 0.209991 22.34 0.209991ZM25.09 48.3C25.09 50.16 23.98 50.68 22.49 50.68C21.08 50.68 19.89 50.1 19.89 48.3V6.13999C19.89 4.30999 20.91 3.75999 22.33 3.75999C23.82 3.75999 24.77 4.26999 24.77 6.13999L25.09 48.3Z" fill="#C4222C"/>
<path d="M42.71 58.69C41.14 58.69 39.58 59.6 38.89 61.43V59.2H34.41V112.71H38.89V97.78C39.65 99.57 41 100.49 42.71 100.49C45.44 100.49 47.91 98.7 47.91 94.86V64.29C47.91 60.26 45.44 58.69 42.71 58.69ZM43.77 94.6C43.77 96.17 42.49 96.94 41.33 96.94C40.2 96.94 38.89 96.17 38.89 94.53V64.8C38.89 63.15 40.04 62.39 41.17 62.39C42.33 62.39 43.78 63.16 43.78 64.73V94.6H43.77Z" fill="#C4222C"/>
<path d="M83.18 104.43V0H70.88V7.28C70.88 12.46 70.37 102.18 69.18 104.44H67.91V112.51H72.1V107.86H80.6V112.51H84.8V104.44H83.18V104.43ZM78.73 104.43H73.67C74.61 102.39 75.15 13.27 75.15 8.75V3.42H78.73V104.43Z" fill="#C4222C"/>
<path d="M59.57 0C54.48 0 52.8 3.04 52.8 6.51V105.99C52.8 109.46 54.48 112.5 59.57 112.5C64.56 112.5 66.3 109.46 66.3 105.99V6.51C66.3 3.04 64.56 0 59.57 0ZM62.15 106.57C62.15 108.43 61.1 108.95 59.71 108.95C58.38 108.95 57.27 108.37 57.27 106.57V5.92C57.27 4.09 58.39 3.54 59.71 3.54C61.11 3.54 62.15 4.05 62.15 5.92V106.57Z" fill="#C4222C"/>
<path d="M38.89 0.719992V2.94999C39.58 1.11999 41.15 0.209991 42.71 0.209991C45.44 0.209991 47.91 1.77999 47.91 5.80999V36.38C47.91 40.22 45.43 42.01 42.71 42.01C41 42.01 39.65 41.1 38.89 39.3V54.22H34.41V0.719992H38.89ZM38.89 6.31999V36.05C38.89 37.7 40.2 38.46 41.33 38.46C42.49 38.46 43.77 37.69 43.77 36.12V6.23999C43.77 4.66999 42.49 3.89999 41.33 3.89999C40.2 3.89999 38.89 4.66999 38.89 6.31999Z" fill="#C4222C"/>
<path d="M78.73 83.72C64.41 83.72 52.8 72.11 52.8 57.79C52.8 43.47 64.41 31.86 78.73 31.86V83.72Z" fill="#C4222C"/>
<path d="M78.73 36.51C69.48 36.51 61.98 44.01 61.98 53.26C61.98 62.51 69.48 70.01 78.73 70.01V36.51Z" fill="white"/>
<path d="M20.3 30.44L21.42 28.38L21.21 22.36L14.66 18.47L14.15 20.87L14.72 27.95L20.3 30.44Z" fill="#005C83"/>
<path d="M33.86 49.91L33.55 46.89L33.98 44.22L39.89 45.87L39.34 47.49L39.53 50.76L33.86 49.91Z" fill="#005C83"/>
<path d="M13.5 67.67L15.12 65.35L19.89 64.75L21.25 67.1L19.89 71.52L15.12 72.67L14.38 70.01L13.5 67.67Z" fill="#005C83"/>
<path d="M43.69 77.55L43.2 77.06L43.77 72.39L47.98 70.37L48.56 71.38L48.06 74.92L43.69 77.55Z" fill="#005C83"/>
<path d="M43.77 21.63L43.48 17.02L43.62 10.33L47.91 15.98L48.72 20.75L47.91 25.78L43.77 21.63Z" fill="#005C83"/>
</g>
<defs>
<clipPath id="clip0">
<rect width="84.81" height="112.71" fill="white"/>
</clipPath>
</defs>
</svg>
